:FULLY-SPECIFIED
:FORCE-ALL-JOINTS-BE-3DOF
:DEGREES
2752
root -5.5583 13.9777 -28.4006 1242.11 -65.3809 -161.227
lfemur -59.53 42.9585 -6.52329
ltibia 67.8806 0 0
lfoot -2.4745 -1.41867 0
ltoes -31.408 0 0
rfemur -30.8525 -18.6831 21.5855
rtibia 81.8312 0 0
rfoot -35.0785 -24.8661 0
rtoes -14.4825 0 0
lowerback 15.7218 5.80662 0.487888
upperback -4.01537 8.08913 1.4521
thorax -13.4564 3.79004 -0.848081
lowerneck -2.46159 9.6108 2.02524
upperneck 7.62653 12.5664 2.00342
head 2.85153 6.34337 0.706933
lclavicle 9.14571e-14 -2.41285e-15 0
lhumerus 3.59613 10.5725 83.9656
lradius 94.6944 0 0
lwrist -19.0745 0 0
lhand -39.7314 387.941 0
lfingers 7.12502 0 0
lthumb -12.7088 -662.466 0
rclavicle 9.14571e-14 -2.41285e-15 0
rhumerus -57.9129 50.9601 -110.264
rradius 114.048 0 0
rwrist -84.6966 0 0
rhand 4.75342 -386.781 0
rfingers 7.12502 0 0
rthumb 30.1348 305.656 0
2753
root -5.56803 13.9695 -28.4068 1242.14 -65.3901 -161.244
lfemur -59.6 43.0148 -6.52657
ltibia 68.0117 0 0
lfoot -2.52273 -1.47946 0
ltoes -31.4248 0 0
rfemur -30.845 -18.7008 21.5687
rtibia 81.915 0 0
rfoot -35.1681 -24.8945 0
rtoes -14.491 0 0
lowerback 15.7007 5.80602 0.476669
upperback -4.02615 8.08609 1.45188
thorax -13.4578 3.78969 -0.839816
lowerneck -2.46039 9.6111 2.02668
upperneck 7.64778 12.5664 2.00274
head 2.85874 6.34332 0.707302
lclavicle 9.1637e-14 -2.43384e-15 0
lhumerus 3.60085 10.6022 83.9664
lradius 94.6765 0 0
lwrist -19.095 0 0
lhand -39.7265 387.936 0
lfingers 7.12502 0 0
lthumb -12.7041 -662.47 0
rclavicle 9.1637e-14 -2.43384e-15 0
rhumerus -57.9433 50.9285 -110.286
rradius 114.052 0 0
rwrist -84.6771 0 0
rhand 4.78621 -386.764 0
rfingers 7.12502 0 0
rthumb 30.1661 305.679 0
2754
root -5.57774 13.961 -28.4132 1242.17 -65.3987 -161.262
lfemur -59.6695 43.0722 -6.52832
ltibia 68.1451 0 0
lfoot -2.57238 -1.54069 0
ltoes -31.4439 0 0
rfemur -30.8376 -18.7173 21.5518
rtibia 82.002 0 0
rfoot -35.26 -24.924 0
rtoes -14.4972 0 0
lowerback 15.6789 5.80541 0.465313
upperback -4.03702 8.08305 1.45191
thorax -13.4591 3.78937 -0.831144
lowerneck -2.45939 9.61152 2.02823
upperneck 7.66985 12.5665 2.00163
head 2.86631 6.34334 0.707575
lclavicle 9.16914e-14 -2.45961e-15 0
lhumerus 3.60415 10.6326 83.9672
lradius 94.6598 0 0
lwrist -19.1137 0 0
lhand -39.7214 387.931 0
lfingers 7.12502 0 0
lthumb -12.6992 -662.475 0
rclavicle 9.16914e-14 -2.45961e-15 0
rhumerus -57.9723 50.898 -110.309
rradius 114.055 0 0
rwrist -84.6587 0 0
rhand 4.81906 -386.748 0
rfingers 7.12502 0 0
rthumb 30.1974 305.701 0
2755
root -5.58742 13.9522 -28.4197 1242.2 -65.407 -161.282
lfemur -59.7388 43.1305 -6.52861
ltibia 68.2806 0 0
lfoot -2.62333 -1.60234 0
ltoes -31.4651 0 0
rfemur -30.8302 -18.7325 21.5347
rtibia 82.0922 0 0
rfoot -35.3539 -24.9546 0
rtoes -14.501 0 0
lowerback 15.6567 5.80481 0.453842
upperback -4.04796 8.08 1.45218
thorax -13.4601 3.78908 -0.822092
lowerneck -2.45857 9.61206 2.02987
upperneck 7.69269 12.5668 2.00011
head 2.87422 6.34343 0.707757
lclavicle 9.16239e-14 -2.49013e-15 0
lhumerus 3.60612 10.6638 83.9681
lradius 94.6443 0 0
lwrist -19.1307 0 0
lhand -39.7161 387.925 0
lfingers 7.12502 0 0
lthumb -12.6941 -662.48 0
rclavicle 9.16239e-14 -2.49013e-15 0
rhumerus -58.0001 50.8687 -110.33
rradius 114.058 0 0
rwrist -84.6412 0 0
rhand 4.85196 -386.731 0
rfingers 7.12502 0 0
rthumb 30.2288 305.723 0
2756
root -5.59709 13.9431 -28.4262 1242.22 -65.4149 -161.303
lfemur -59.8078 43.1896 -6.52749
ltibia 68.4182 0 0
lfoot -2.67549 -1.66438 0
ltoes -31.4883 0 0
rfemur -30.8228 -18.7465 21.5174
rtibia 82.1853 0 0
rfoot -35.4499 -24.9863 0
rtoes -14.5026 0 0
lowerback 15.6339 5.8042 0.442275
upperback -4.05897 8.07696 1.45269
thorax -13.461 3.78883 -0.812687
lowerneck -2.45792 9.61272 2.0316
upperneck 7.71627 12.5672 1.99819
head 2.88245 6.3436 0.707852
lclavicle 9.14377e-14 -2.52536e-15 0
lhumerus 3.60683 10.6958 83.9691
lradius 94.63 0 0
lwrist -19.1461 0 0
lhand -39.7107 387.919 0
lfingers 7.12502 0 0
lthumb -12.6889 -662.486 0
rclavicle 9.14377e-14 -2.52536e-15 0
rhumerus -58.0268 50.8404 -110.352
rradius 114.059 0 0
rwrist -84.6247 0 0
rhand 4.8849 -386.715 0
rfingers 7.12502 0 0
rthumb 30.2602 305.745 0
2757
root -5.60672 13.9338 -28.4329 1242.25 -65.4224 -161.325
lfemur -59.8764 43.2495 -6.52501
ltibia 68.5577 0 0
lfoot -2.72877 -1.72677 0
ltoes -31.5132 0 0
rfemur -30.8154 -18.7594 21.5001
rtibia 82.2812 0 0
rfoot -35.5476 -25.019 0
rtoes -14.502 0 0
lowerback 15.6107 5.8036 0.430635
upperback -4.07003 8.07393 1.45342
thorax -13.4618 3.7886 -0.802957
lowerneck -2.45745 9.61348 2.03341
upperneck 7.74053 12.5679 1.99591
head 2.89098 6.34383 0.707864
lclavicle 9.11363e-14 -2.56527e-15 0
lhumerus 3.60636 10.7283 83.9701
lradius 94.6166 0 0
lwrist -19.1598 0 0
lhand -39.7052 387.913 0
lfingers 7.12502 0 0
lthumb -12.6836 -662.492 0
rclavicle 9.11363e-14 -2.56527e-15 0
rhumerus -58.0522 50.8133 -110.373
rradius 114.06 0 0
rwrist -84.6092 0 0
rhand 4.91789 -386.699 0
rfingers 7.12502 0 0
rthumb 30.2917 305.767 0
2758
root -5.61633 13.9243 -28.4397 1242.28 -65.4296 -161.348
lfemur -59.9447 43.3101 -6.52124
ltibia 68.6989 0 0
lfoot -2.78306 -1.78947 0
ltoes -31.5397 0 0
rfemur -30.8081 -18.7713 21.4827
rtibia 82.3796 0 0
rfoot -35.6471 -25.0526 0
rtoes -14.4994 0 0
lowerback 15.5871 5.80299 0.418943
upperback -4.08113 8.07091 1.45436
thorax -13.4623 3.7884 -0.792927
lowerneck -2.45714 9.61434 2.03531
upperneck 7.76543 12.5686 1.99327
head 2.89979 6.34412 0.707798
lclavicle 9.07229e-14 -2.60981e-15 0
lhumerus 3.6048 10.7615 83.9713
lradius 94.6043 0 0
lwrist -19.172 0 0
lhand -39.6995 387.907 0
lfingers 7.12502 0 0
lthumb -12.6781 -662.498 0
rclavicle 9.07229e-14 -2.60981e-15 0
rhumerus -58.0766 50.7872 -110.394
rradius 114.06 0 0
rwrist -84.5945 0 0
rhand 4.95091 -386.683 0
rfingers 7.12502 0 0
rthumb 30.3232 305.789 0
2759
root -5.6259 13.9145 -28.4465 1242.31 -65.4365 -161.373
lfemur -60.0127 43.3713 -6.51623
ltibia 68.8417 0 0
lfoot -2.83827 -1.85246 0
ltoes -31.5676 0 0
rfemur -30.8008 -18.7821 21.4653
rtibia 82.4805 0 0
rfoot -35.7481 -25.0871 0
rtoes -14.4948 0 0
lowerback 15.5631 5.80238 0.407219
upperback -4.09226 8.0679 1.45551
thorax -13.4628 3.78822 -0.782625
lowerneck -2.45698 9.6153 2.03728
upperneck 7.79092 12.5695 1.9903
head 2.90886 6.34447 0.707659
lclavicle 9.02009e-14 -2.65895e-15 0
lhumerus 3.60222 10.7952 83.9725
lradius 94.593 0 0
lwrist -19.1828 0 0
lhand -39.6938 387.9 0
lfingers 7.12502 0 0
lthumb -12.6726 -662.504 0
rclavicle 9.02009e-14 -2.65895e-15 0
rhumerus -58.0999 50.7621 -110.414
rradius 114.059 0 0
rwrist -84.5807 0 0
rhand 4.98397 -386.667 0
rfingers 7.12502 0 0
rthumb 30.3547 305.811 0
2760
root -5.63543 13.9046 -28.4534 1242.33 -65.4431 -161.398
lfemur -60.0804 43.4329 -6.51004
ltibia 68.9859 0 0
lfoot -2.8943 -1.91569 0
ltoes -31.5968 0 0
rfemur -30.7936 -18.7919 21.4478
rtibia 82.5836 0 0
rfoot -35.8506 -25.1226 0
rtoes -14.4883 0 0
lowerback 15.5389 5.80177 0.395485
upperback -4.10341 8.0649 1.45686
thorax -13.4631 3.78807 -0.772078
lowerneck -2.45697 9.61634 2.03932
upperneck 7.81697 12.5705 1.98703
head 2.91819 6.34487 0.70745
lclavicle 8.95737e-14 -2.71264e-15 0
lhumerus 3.59872 10.8294 83.9739
lradius 94.5825 0 0
lwrist -19.1921 0 0
lhand -39.6879 387.893 0
lfingers 7.12502 0 0
lthumb -12.6669 -662.511 0
rclavicle 8.95737e-14 -2.71264e-15 0
rhumerus -58.1221 50.7381 -110.434
rradius 114.057 0 0
rwrist -84.5677 0 0
rhand 5.01705 -386.651 0
rfingers 7.12502 0 0
rthumb 30.3863 305.833 0
2761
root -5.64492 13.8944 -28.4604 1242.36 -65.4495 -161.423
lfemur -60.1478 43.495 -6.50272
ltibia 69.1314 0 0
lfoot -2.95105 -1.97914 0
ltoes -31.627 0 0
rfemur -30.7864 -18.8008 21.4304
rtibia 82.6888 0 0
rfoot -35.9544 -25.1588 0
rtoes -14.4801 0 0
lowerback 15.5144 5.80116 0.383761
upperback -4.11457 8.06193 1.45839
thorax -13.4633 3.78794 -0.761314
lowerneck -2.45709 9.61747 2.04144
upperneck 7.84353 12.5716 1.98347
head 2.92774 6.34532 0.707177
lclavicle 8.88446e-14 -2.77084e-15 0
lhumerus 3.59436 10.8641 83.9753
lradius 94.5729 0 0
lwrist -19.2001 0 0
lhand -39.682 387.886 0
lfingers 7.12502 0 0
lthumb -12.6612 -662.518 0
rclavicle 8.88446e-14 -2.77084e-15 0
rhumerus -58.1434 50.715 -110.454
rradius 114.055 0 0
rwrist -84.5555 0 0
rhand 5.05016 -386.635 0
rfingers 7.12502 0 0
rthumb 30.4178 305.854 0
2762
root -5.65436 13.8841 -28.4675 1242.39 -65.4556 -161.449
lfemur -60.2149 43.5574 -6.49434
ltibia 69.2781 0 0
lfoot -3.00842 -2.04277 0
ltoes -31.6581 0 0
rfemur -30.7794 -18.8088 21.4131
rtibia 82.7959 0 0
rfoot -36.0594 -25.1959 0
rtoes -14.4703 0 0
lowerback 15.4897 5.80054 0.37207
upperback -4.12573 8.05897 1.4601
thorax -13.4635 3.78783 -0.750359
lowerneck -2.45735 9.61867 2.04362
upperneck 7.87054 12.5729 1.97964
head 2.93749 6.34582 0.706844
lclavicle 8.8017e-14 -2.83352e-15 0
lhumerus 3.58923 10.8992 83.9768
lradius 94.5641 0 0
lwrist -19.2068 0 0
lhand -39.676 387.879 0
lfingers 7.12502 0 0
lthumb -12.6554 -662.525 0
rclavicle 8.8017e-14 -2.83352e-15 0
rhumerus -58.1637 50.6929 -110.474
rradius 114.052 0 0
rwrist -84.5441 0 0
rhand 5.08329 -386.62 0
rfingers 7.12502 0 0
rthumb 30.4494 305.875 0
2763
root -5.66376 13.8737 -28.4746 1242.42 -65.4615 -161.476
lfemur -60.2817 43.62 -6.48494
ltibia 69.4257 0 0
lfoot -3.06632 -2.10654 0
ltoes -31.6899 0 0
rfemur -30.7724 -18.816 21.3959
rtibia 82.9048 0 0
rfoot -36.1654 -25.2337 0
rtoes -14.4589 0 0
lowerback 15.4649 5.79992 0.360431
upperback -4.13688 8.05604 1.46198
thorax -13.4635 3.78774 -0.73924
lowerneck -2.45773 9.61994 2.04585
upperneck 7.89798 12.5742 1.97557
head 2.94744 6.34637 0.706455
lclavicle 8.70943e-14 -2.90064e-15 0
lhumerus 3.58341 10.9346 83.9784
lradius 94.5561 0 0
lwrist -19.2122 0 0
lhand -39.67 387.871 0
lfingers 7.12502 0 0
lthumb -12.6496 -662.531 0
rclavicle 8.70943e-14 -2.90064e-15 0
rhumerus -58.1832 50.6718 -110.493
rradius 114.049 0 0
rwrist -84.5334 0 0
rhand 5.11643 -386.605 0
rfingers 7.12502 0 0
rthumb 30.481 305.896 0
